<svg viewBox="0 0 250.67 250.67" xmlns="http://www.w3.org/2000/svg" width="14px" height="14px"><path d="m62.115 0c-34.412 0-62.115 27.703-62.115 62.115v126.44c0 34.412 27.703 62.115 62.115 62.115h126.44c34.412 0 62.115-27.703 62.115-62.115v-126.44c0-34.412-27.703-62.115-62.115-62.115zm4.6758 132.58a51.124 51.124 0 0 1 5.1035 0.25586 51.124 51.124 0 0 1 5.0527 0.76367 51.124 51.124 0 0 1 4.9512 1.2637 51.124 51.124 0 0 1 4.8008 1.7539 51.124 51.124 0 0 1 4.6016 2.2226 51.124 51.124 0 0 1 4.3574 2.6699 51.124 51.124 0 0 1 4.0684 3.0938 51.124 51.124 0 0 1 3.7383 3.4824 51.124 51.124 0 0 1 3.373 3.8398 51.124 51.124 0 0 1 2.9727 4.1562 51.124 51.124 0 0 1 2.543 4.4336 51.124 51.124 0 0 1 2.0879 4.6641 51.124 51.124 0 0 1 1.6113 4.8496 51.124 51.124 0 0 1 1.1192 4.9863 51.124 51.124 0 0 1 0.61523 5.0723 51.124 51.124 0 0 1 0.12891 3.6172 51.124 51.124 0 0 1-0.25586 5.1035 51.124 51.124 0 0 1-0.76368 5.0527 51.124 51.124 0 0 1-1.2656 4.9512 51.124 51.124 0 0 1-1.752 4.8008 51.124 51.124 0 0 1-2.2227 4.6016 51.124 51.124 0 0 1-2.6699 4.3574 51.124 51.124 0 0 1-3.0938 4.0684 51.124 51.124 0 0 1-3.4824 3.7383 51.124 51.124 0 0 1-3.8398 3.373 51.124 51.124 0 0 1-4.1562 2.9727 51.124 51.124 0 0 1-4.4336 2.543 51.124 51.124 0 0 1-4.6641 2.0879 51.124 51.124 0 0 1-4.8496 1.6113 51.124 51.124 0 0 1-4.9863 1.1191 51.124 51.124 0 0 1-5.0723 0.61523 51.124 51.124 0 0 1-3.6172 0.12695 51.124 51.124 0 0 1-5.1035-0.2539 51.124 51.124 0 0 1-5.0527-0.76367 51.124 51.124 0 0 1-4.9512-1.2656 51.124 51.124 0 0 1-4.8008-1.752 51.124 51.124 0 0 1-4.6016-2.2227 51.124 51.124 0 0 1-4.3574-2.6719 51.124 51.124 0 0 1-4.0684-3.0918 51.124 51.124 0 0 1-3.7383-3.4824 51.124 51.124 0 0 1-3.373-3.8398 51.124 51.124 0 0 1-2.9727-4.1563 51.124 51.124 0 0 1-2.543-4.4336 51.124 51.124 0 0 1-2.0879-4.6641 51.124 51.124 0 0 1-1.6113-4.8496 51.124 51.124 0 0 1-1.1191-4.9863 51.124 51.124 0 0 1-0.61523-5.0742 51.124 51.124 0 0 1-0.12891-3.6152 51.124 51.124 0 0 1 0.25586-5.1035 51.124 51.124 0 0 1 0.76367-5.0527 51.124 51.124 0 0 1 1.2637-4.9531 51.124 51.124 0 0 1 1.7539-4.7988 51.124 51.124 0 0 1 2.2227-4.6016 51.124 51.124 0 0 1 2.6699-4.3574 51.124 51.124 0 0 1 3.0938-4.0684 51.124 51.124 0 0 1 3.4824-3.7383 51.124 51.124 0 0 1 3.8398-3.373 51.124 51.124 0 0 1 4.1562-2.9726 51.124 51.124 0 0 1 4.4336-2.543 51.124 51.124 0 0 1 4.6641-2.0879 51.124 51.124 0 0 1 4.8496-1.6113 51.124 51.124 0 0 1 4.9863-1.1191 51.124 51.124 0 0 1 5.0723-0.61524 51.124 51.124 0 0 1 3.6172-0.1289zm117.54 0a51.124 51.124 0 0 1 5.1035 0.25586 51.124 51.124 0 0 1 5.0527 0.76367 51.124 51.124 0 0 1 4.9531 1.2637 51.124 51.124 0 0 1 4.7988 1.7539 51.124 51.124 0 0 1 4.6016 2.2226 51.124 51.124 0 0 1 4.3574 2.6699 51.124 51.124 0 0 1 4.0684 3.0938 51.124 51.124 0 0 1 3.7383 3.4824 51.124 51.124 0 0 1 3.373 3.8398 51.124 51.124 0 0 1 2.9727 4.1562 51.124 51.124 0 0 1 2.543 4.4336 51.124 51.124 0 0 1 2.0879 4.6641 51.124 51.124 0 0 1 1.6113 4.8496 51.124 51.124 0 0 1 1.1191 4.9863 51.124 51.124 0 0 1 0.61523 5.0723 51.124 51.124 0 0 1 0.12891 3.6172 51.124 51.124 0 0 1-0.25586 5.1035 51.124 51.124 0 0 1-0.76367 5.0527 51.124 51.124 0 0 1-1.2637 4.9512 51.124 51.124 0 0 1-1.7539 4.8008 51.124 51.124 0 0 1-2.2227 4.6016 51.124 51.124 0 0 1-2.6699 4.3574 51.124 51.124 0 0 1-3.0938 4.0684 51.124 51.124 0 0 1-3.4824 3.7383 51.124 51.124 0 0 1-3.8398 3.373 51.124 51.124 0 0 1-4.1563 2.9727 51.124 51.124 0 0 1-4.4336 2.543 51.124 51.124 0 0 1-4.6641 2.0879 51.124 51.124 0 0 1-4.8496 1.6113 51.124 51.124 0 0 1-4.9863 1.1191 51.124 51.124 0 0 1-5.0723 0.61523 51.124 51.124 0 0 1-3.6172 0.12695 51.124 51.124 0 0 1-5.1035-0.2539 51.124 51.124 0 0 1-5.0527-0.76367 51.124 51.124 0 0 1-4.9512-1.2656 51.124 51.124 0 0 1-4.8008-1.752 51.124 51.124 0 0 1-4.6016-2.2227 51.124 51.124 0 0 1-4.3574-2.6719 51.124 51.124 0 0 1-4.0684-3.0918 51.124 51.124 0 0 1-3.7383-3.4824 51.124 51.124 0 0 1-3.373-3.8398 51.124 51.124 0 0 1-2.9726-4.1563 51.124 51.124 0 0 1-2.543-4.4336 51.124 51.124 0 0 1-2.0879-4.6641 51.124 51.124 0 0 1-1.6113-4.8496 51.124 51.124 0 0 1-1.1191-4.9863 51.124 51.124 0 0 1-0.61524-5.0742 51.124 51.124 0 0 1-0.12695-3.6152 51.124 51.124 0 0 1 0.25391-5.1035 51.124 51.124 0 0 1 0.76367-5.0527 51.124 51.124 0 0 1 1.2656-4.9531 51.124 51.124 0 0 1 1.752-4.7988 51.124 51.124 0 0 1 2.2226-4.6016 51.124 51.124 0 0 1 2.6719-4.3574 51.124 51.124 0 0 1 3.0918-4.0684 51.124 51.124 0 0 1 3.4824-3.7383 51.124 51.124 0 0 1 3.8398-3.373 51.124 51.124 0 0 1 4.1562-2.9726 51.124 51.124 0 0 1 4.4336-2.543 51.124 51.124 0 0 1 4.6641-2.0879 51.124 51.124 0 0 1 4.8496-1.6113 51.124 51.124 0 0 1 4.9863-1.1191 51.124 51.124 0 0 1 5.0742-0.61524 51.124 51.124 0 0 1 3.6152-0.1289z" fill="#b70000"/></svg>